<svg width="1920" height="1080" viewBox="0 0 1920 1080" fill="none" xmlns="http://www.w3.org/2000/svg">
<g clip-path="url(#clip0_2657_134)">
<rect width="1920" height="1080" fill="#202020"/>
<g opacity="0.2">
<circle opacity="0.2" cx="960" cy="907" r="367" stroke="#67D1E8" stroke-width="136"/>
<circle opacity="0.5" cx="960" cy="907" r="210" stroke="#67D1E8" stroke-width="128"/>
</g>
<rect y="876" width="1920" height="204" fill="#1A1A1A"/>
<circle cx="960" cy="909" r="125" fill="#67D1E8"/>
<path fill-rule="evenodd" clip-rule="evenodd" d="M927 871L927 884.99L945.317 884.99L979.8 907L945.317 929.01L927 929.01L927 943L949.598 943L1006 907L949.598 871L927 871Z" fill="#212121"/>
<path d="M835.884 248.557L788.663 354.805H782.17L829.392 248.557H835.884ZM880.909 282.438C888.937 282.438 895.902 285.508 901.687 291.41C907.353 297.431 910.305 304.75 910.305 313.486C910.305 322.222 907.353 329.66 901.687 335.563C895.902 341.583 888.937 344.535 880.909 344.535C871.937 344.535 864.972 341.229 860.25 334.5V343H847.5V260.362H860.25V292.355C865.09 285.744 871.937 282.438 880.909 282.438ZM865.562 327.063C869.104 330.604 873.472 332.375 878.902 332.375C884.215 332.375 888.701 330.604 892.242 327.063C895.784 323.521 897.555 318.917 897.555 313.486C897.555 308.056 895.784 303.57 892.242 300.028C888.701 296.487 884.215 294.598 878.902 294.598C873.472 294.598 869.104 296.487 865.562 300.028C862.021 303.57 860.25 308.056 860.25 313.486C860.25 318.917 862.021 323.403 865.562 327.063ZM934.61 343H921.86V256.821H934.61V343ZM977.275 344.535C968.539 344.535 961.101 341.583 955.198 335.563C949.06 329.542 946.108 322.222 946.108 313.486C946.108 304.869 949.06 297.549 955.198 291.41C961.101 285.508 968.539 282.438 977.275 282.438C986.011 282.438 993.33 285.508 999.351 291.41C1005.37 297.549 1008.44 304.869 1008.44 313.486C1008.44 322.222 1005.37 329.542 999.351 335.563C993.33 341.583 986.011 344.535 977.275 344.535ZM964.171 326.827C967.712 330.368 972.08 332.139 977.275 332.139C982.469 332.139 986.837 330.368 990.379 326.827C993.92 323.285 995.691 318.917 995.691 313.486C995.691 308.174 993.92 303.688 990.379 300.146C986.837 296.605 982.469 294.834 977.275 294.834C972.08 294.834 967.712 296.605 964.171 300.146C960.629 303.688 958.858 308.174 958.858 313.486C958.858 318.917 960.629 323.285 964.171 326.827ZM1066.96 292.709V283.973H1079.47V340.285C1079.47 349.257 1076.52 356.222 1070.61 360.944C1064.71 365.784 1057.63 368.146 1049.13 368.146C1035.43 368.146 1026.11 363.423 1021.15 353.861L1032.13 347.486C1035.2 353.625 1040.87 356.576 1049.36 356.576C1054.8 356.576 1059.16 355.16 1062.23 352.326C1065.3 349.493 1066.96 345.479 1066.96 340.285V333.083C1062.11 339.931 1055.27 343.354 1046.41 343.354C1038.15 343.354 1031.07 340.403 1025.28 334.5C1019.5 328.597 1016.66 321.396 1016.66 312.896C1016.66 304.396 1019.5 297.313 1025.28 291.41C1030.95 285.508 1038.03 282.438 1046.41 282.438C1055.27 282.438 1062.11 285.862 1066.96 292.709ZM1034.73 326.118C1038.27 329.66 1042.75 331.431 1048.18 331.431C1053.5 331.431 1057.98 329.66 1061.52 326.118C1065.07 322.577 1066.96 318.209 1066.96 312.896C1066.96 307.702 1065.07 303.216 1061.52 299.674C1057.98 296.133 1053.5 294.362 1048.18 294.362C1042.75 294.362 1038.27 296.133 1034.73 299.674C1031.18 303.216 1029.41 307.702 1029.41 312.896C1029.41 318.209 1031.18 322.577 1034.73 326.118ZM1105.44 300.264C1105.44 302.153 1106.38 303.57 1108.27 304.75C1110.16 305.931 1112.87 306.994 1116.53 307.938C1119.25 308.646 1121.61 309.237 1123.73 309.945C1125.74 310.653 1127.87 311.716 1130.23 313.132C1132.47 314.549 1134.24 316.32 1135.42 318.563C1136.6 320.806 1137.19 323.403 1137.19 326.354C1137.19 332.021 1134.95 336.507 1130.58 339.694C1126.09 343 1120.66 344.535 1114.17 344.535C1108.27 344.535 1103.31 343.354 1099.18 340.875C1094.93 338.514 1091.98 335.09 1090.09 330.722L1101.07 324.347C1102.96 330.014 1107.32 332.847 1114.17 332.847C1120.78 332.847 1124.21 330.722 1124.21 326.236C1124.21 323.049 1120.43 320.57 1112.99 318.681C1110.16 317.973 1107.68 317.264 1105.79 316.556C1103.9 315.848 1101.78 314.903 1099.41 313.486C1097.05 312.188 1095.28 310.417 1094.1 308.174C1092.92 306.049 1092.33 303.452 1092.45 300.501C1092.45 295.07 1094.46 290.702 1098.59 287.397C1102.72 284.091 1107.91 282.438 1114.05 282.438C1118.89 282.438 1123.26 283.619 1127.04 285.744C1130.82 287.869 1133.77 290.938 1135.89 294.716L1125.15 300.737C1123.14 296.251 1119.48 294.008 1114.05 294.008C1111.46 294.008 1109.45 294.598 1107.8 295.66C1106.14 296.841 1105.44 298.376 1105.44 300.264Z" fill="#67D1E8"/>
<path d="M857.135 203.015V189.899H861.124V222H857.135V218.056C855.163 221.083 852.274 222.596 848.467 222.596C845.212 222.596 842.46 221.45 840.259 219.111C837.966 216.772 836.865 213.929 836.865 210.536C836.865 207.234 837.966 204.391 840.259 202.006C842.506 199.667 845.257 198.475 848.467 198.475C852.274 198.475 855.163 199.988 857.135 203.015ZM848.972 218.744C851.265 218.744 853.237 217.964 854.796 216.405C856.355 214.8 857.135 212.828 857.135 210.536C857.135 208.243 856.355 206.271 854.796 204.712C853.237 203.152 851.265 202.327 848.972 202.327C846.679 202.327 844.753 203.152 843.194 204.712C841.635 206.271 840.855 208.243 840.855 210.536C840.855 212.828 841.635 214.8 843.194 216.405C844.753 217.964 846.679 218.744 848.972 218.744ZM886.154 203.015V199.071H890.144V222H886.154V218.056C884.182 221.083 881.293 222.596 877.487 222.596C874.231 222.596 871.48 221.45 869.278 219.111C866.985 216.772 865.885 213.929 865.885 210.536C865.885 207.234 866.985 204.391 869.278 202.006C871.525 199.667 874.277 198.475 877.487 198.475C881.293 198.475 884.182 199.988 886.154 203.015ZM877.991 218.744C880.284 218.744 882.256 217.964 883.815 216.405C885.375 214.8 886.154 212.828 886.154 210.536C886.154 208.243 885.375 206.271 883.815 204.712C882.256 203.152 880.284 202.327 877.991 202.327C875.699 202.327 873.772 203.152 872.213 204.712C870.654 206.271 869.875 208.243 869.875 210.536C869.875 212.828 870.654 214.8 872.213 216.405C873.772 217.964 875.699 218.744 877.991 218.744ZM905.039 217.735L912.239 199.071H916.549L907.378 222H902.7L893.529 199.071H897.839L905.039 217.735ZM921.941 194.898C921.162 194.898 920.52 194.669 920.015 194.118C919.465 193.614 919.236 192.972 919.236 192.238C919.236 191.504 919.465 190.908 920.015 190.358C920.52 189.808 921.162 189.533 921.941 189.533C922.675 189.533 923.271 189.808 923.821 190.358C924.326 190.908 924.601 191.504 924.601 192.238C924.601 192.972 924.326 193.614 923.821 194.118C923.271 194.669 922.675 194.898 921.941 194.898ZM923.913 222H919.924V199.071H923.913V222ZM948.985 203.015V189.899H952.975V222H948.985V218.056C947.013 221.083 944.124 222.596 940.318 222.596C937.062 222.596 934.31 221.45 932.109 219.111C929.816 216.772 928.716 213.929 928.716 210.536C928.716 207.234 929.816 204.391 932.109 202.006C934.356 199.667 937.108 198.475 940.318 198.475C944.124 198.475 947.013 199.988 948.985 203.015ZM940.822 218.744C943.115 218.744 945.087 217.964 946.646 216.405C948.205 214.8 948.985 212.828 948.985 210.536C948.985 208.243 948.205 206.271 946.646 204.712C945.087 203.152 943.115 202.327 940.822 202.327C938.529 202.327 936.603 203.152 935.044 204.712C933.485 206.271 932.705 208.243 932.705 210.536C932.705 212.828 933.485 214.8 935.044 216.405C936.603 217.964 938.529 218.744 940.822 218.744ZM969.933 222.642C966.769 222.642 964.109 221.954 961.954 220.533C959.753 219.157 958.24 217.185 957.323 214.709L962.734 211.544C963.972 214.846 966.448 216.451 970.117 216.451C971.814 216.451 973.098 216.176 973.969 215.534C974.794 214.938 975.253 214.112 975.253 213.058C975.253 211.957 974.749 211.086 973.74 210.444C972.731 209.802 970.896 209.114 968.328 208.38C965.485 207.555 963.284 206.546 961.679 205.399C959.661 203.932 958.652 201.731 958.652 198.796C958.652 195.861 959.661 193.568 961.725 191.871C963.743 190.129 966.265 189.257 969.2 189.257C971.768 189.257 974.015 189.899 976.033 191.138C978.004 192.422 979.564 194.164 980.664 196.457L975.345 199.53C974.061 196.778 971.997 195.402 969.2 195.402C967.916 195.402 966.861 195.723 966.127 196.32C965.348 196.916 964.981 197.695 964.981 198.612C964.981 199.621 965.394 200.447 966.219 201.089C967.136 201.731 968.741 202.419 971.08 203.107L973.281 203.84C973.648 203.978 974.336 204.253 975.345 204.62C976.262 204.987 976.904 205.308 977.362 205.583C978.83 206.5 979.839 207.463 980.389 208.426C981.169 209.71 981.581 211.223 981.581 212.966C981.581 215.947 980.481 218.286 978.325 220.028C976.124 221.771 973.327 222.642 969.933 222.642ZM991.349 222H985.434V188.524H991.349V222ZM999.699 196.32C998.69 196.32 997.865 195.999 997.131 195.265C996.397 194.531 996.076 193.706 996.076 192.697C996.076 191.734 996.397 190.862 997.131 190.129C997.865 189.395 998.69 189.028 999.699 189.028C1000.71 189.028 1001.53 189.395 1002.27 190.129C1003 190.862 1003.37 191.734 1003.37 192.697C1003.37 193.706 1003 194.531 1002.27 195.265C1001.53 195.999 1000.71 196.32 999.699 196.32ZM1002.68 222H996.764V199.071H1002.68V222ZM1020.84 198.429C1023.36 198.429 1025.43 199.3 1027.03 200.951C1028.68 202.694 1029.51 204.987 1029.51 207.922V222H1023.59V208.655C1023.59 207.188 1023.18 205.996 1022.36 205.17C1021.53 204.345 1020.43 203.932 1019.05 203.932C1017.49 203.932 1016.26 204.436 1015.34 205.399C1014.42 206.362 1014.01 207.784 1014.01 209.618V222H1008.09V199.071H1014.01V201.639C1015.39 199.53 1017.68 198.429 1020.84 198.429ZM1052.12 201.914V199.071H1057.9V220.899C1057.9 224.43 1056.71 227.136 1054.37 229.016C1052.03 230.896 1049.24 231.814 1045.93 231.814C1040.71 231.814 1037.08 229.979 1035.07 226.219L1040.11 223.33C1041.21 225.485 1043.23 226.54 1046.12 226.54C1047.95 226.54 1049.42 226.081 1050.52 225.072C1051.57 224.109 1052.12 222.734 1052.12 220.899V218.423C1050.38 220.762 1047.91 221.908 1044.79 221.908C1041.53 221.908 1038.83 220.808 1036.62 218.515C1034.42 216.222 1033.37 213.425 1033.37 210.169C1033.37 206.959 1034.47 204.161 1036.67 201.868C1038.87 199.575 1041.58 198.429 1044.79 198.429C1047.91 198.429 1050.38 199.621 1052.12 201.914ZM1052.12 210.169C1052.12 208.334 1051.48 206.867 1050.29 205.72C1049.1 204.528 1047.54 203.932 1045.7 203.932C1043.87 203.932 1042.31 204.528 1041.07 205.72C1039.88 206.867 1039.28 208.334 1039.28 210.169C1039.28 212.003 1039.88 213.516 1041.07 214.709C1042.27 215.901 1043.82 216.451 1045.7 216.451C1047.54 216.451 1049.1 215.901 1050.29 214.709C1051.48 213.516 1052.12 212.003 1052.12 210.169Z" fill="white"/>
<path d="M1063.43 222.26C1063 222.26 1062.62 222.118 1062.34 221.811C1062.03 221.527 1061.89 221.148 1061.89 220.722C1061.89 220.296 1062.03 219.941 1062.34 219.633C1062.62 219.349 1063 219.183 1063.43 219.183C1063.85 219.183 1064.23 219.349 1064.51 219.633C1064.8 219.941 1064.96 220.296 1064.96 220.722C1064.96 221.148 1064.8 221.527 1064.51 221.811C1064.23 222.118 1063.85 222.26 1063.43 222.26ZM1068.92 208.012C1068.52 208.012 1068.19 207.893 1067.93 207.609C1067.64 207.349 1067.52 207.018 1067.52 206.639C1067.52 206.26 1067.64 205.953 1067.93 205.669C1068.19 205.385 1068.52 205.243 1068.92 205.243C1069.3 205.243 1069.61 205.385 1069.89 205.669C1070.15 205.953 1070.29 206.26 1070.29 206.639C1070.29 207.018 1070.15 207.349 1069.89 207.609C1069.61 207.893 1069.3 208.012 1068.92 208.012ZM1069.94 222H1067.88V210.166H1069.94V222ZM1078.97 209.858C1080.35 209.858 1081.46 210.308 1082.31 211.183C1083.14 212.059 1083.56 213.243 1083.56 214.734V222H1081.51V214.852C1081.51 213.905 1081.25 213.172 1080.72 212.627C1080.2 212.107 1079.47 211.822 1078.57 211.822C1077.51 211.822 1076.68 212.154 1076.06 212.817C1075.45 213.479 1075.14 214.45 1075.14 215.728V222H1073.08V210.166H1075.14V211.87C1075.94 210.544 1077.22 209.858 1078.97 209.858Z" fill="#CCCCCC"/>
</g>
<defs>
<clipPath id="clip0_2657_134">
<rect width="1920" height="1080" fill="white"/>
</clipPath>
</defs>
</svg>
