<svg width="1200" height="630" viewBox="0 0 1200 630" fill="none" xmlns="http://www.w3.org/2000/svg">
<g clip-path="url(#clip0_2650_304)">
<rect width="1200" height="630" fill="#1F1F1F"/>
<path d="M603.5 358C603.5 355.515 601.485 353.5 599 353.5C596.515 353.5 594.5 355.515 594.5 358H603.5ZM594.5 358V631H603.5V358H594.5Z" fill="#67D1E8"/>
<path d="M1062 635.5C1064.49 635.5 1066.5 633.485 1066.5 631C1066.5 628.515 1064.49 626.5 1062 626.5V635.5ZM1062 626.5H1061.15V635.5H1062V626.5Z" fill="#67D1E8"/>
<path d="M1044.37 628C1044.37 625.515 1042.36 623.5 1039.87 623.5C1037.39 623.5 1035.37 625.515 1035.37 628L1044.37 628ZM1044.37 631L1044.37 628L1035.37 628L1035.37 631L1044.37 631Z" fill="#67D1E8"/>
<path d="M1022.24 624C1022.24 621.515 1020.23 619.5 1017.74 619.5C1015.26 619.5 1013.24 621.515 1013.24 624L1022.24 624ZM1013.24 624L1013.24 631L1022.24 631L1022.24 624L1013.24 624Z" fill="#67D1E8"/>
<path d="M1000.97 591C1000.97 588.515 998.95 586.5 996.465 586.5C993.98 586.5 991.965 588.515 991.965 591H1000.97ZM991.965 591V631H1000.97V591H991.965Z" fill="#67D1E8"/>
<path d="M978.836 611C978.836 608.515 976.822 606.5 974.336 606.5C971.851 606.5 969.836 608.515 969.836 611L978.836 611ZM978.836 631L978.836 611L969.836 611L969.836 631L978.836 631Z" fill="#67D1E8"/>
<path d="M956.708 603C956.708 600.515 954.693 598.5 952.208 598.5C949.722 598.5 947.708 600.515 947.708 603L956.708 603ZM947.708 603L947.708 631L956.708 631L956.708 603L947.708 603Z" fill="#67D1E8"/>
<path d="M934.579 605C934.579 602.515 932.564 600.5 930.079 600.5C927.594 600.5 925.579 602.515 925.579 605L934.579 605ZM934.579 631L934.579 605L925.579 605L925.579 631L934.579 631Z" fill="#67D1E8"/>
<path d="M913.302 591C913.302 588.515 911.287 586.5 908.802 586.5C906.316 586.5 904.302 588.515 904.302 591L913.302 591ZM904.302 591L904.302 631L913.302 631L913.302 591L904.302 591Z" fill="#67D1E8"/>
<path d="M891.173 562C891.173 559.515 889.158 557.5 886.673 557.5C884.188 557.5 882.173 559.515 882.173 562L891.173 562ZM891.173 631L891.173 562L882.173 562L882.173 631L891.173 631Z" fill="#67D1E8"/>
<path d="M869.044 571C869.044 568.515 867.029 566.5 864.544 566.5C862.059 566.5 860.044 568.515 860.044 571L869.044 571ZM860.044 571L860.044 631L869.044 631L869.044 571L860.044 571Z" fill="#67D1E8"/>
<path d="M846.916 525C846.916 522.515 844.901 520.5 842.416 520.5C839.93 520.5 837.916 522.515 837.916 525L846.916 525ZM846.916 631L846.916 525L837.916 525L837.916 631L846.916 631Z" fill="#67D1E8"/>
<path d="M759.252 457C759.252 454.515 757.237 452.5 754.752 452.5C752.267 452.5 750.252 454.515 750.252 457L759.252 457ZM750.252 457L750.252 631L759.252 631L759.252 457L750.252 457Z" fill="#67D1E8"/>
<path d="M737.974 405C737.974 402.515 735.96 400.5 733.474 400.5C730.989 400.5 728.974 402.515 728.974 405L737.974 405ZM737.974 630L737.974 405L728.974 405L728.974 630L737.974 630Z" fill="#67D1E8"/>
<path d="M691.163 386.969C691.146 384.483 689.117 382.483 686.632 382.5C684.147 382.517 682.146 384.546 682.164 387.031L691.163 386.969ZM692.866 630.969L691.163 386.969L682.164 387.031L683.866 631.031L692.866 630.969Z" fill="#67D1E8"/>
<path d="M669.035 362C669.035 359.515 667.02 357.5 664.535 357.5C662.05 357.5 660.035 359.515 660.035 362H669.035ZM660.035 362V630H669.035V362H660.035Z" fill="#67D1E8"/>
<path d="M647.757 369C647.757 366.515 645.743 364.5 643.257 364.5C640.772 364.5 638.757 366.515 638.757 369L647.757 369ZM647.757 630L647.757 369L638.757 369L638.757 630L647.757 630Z" fill="#67D1E8"/>
<path d="M825.638 525C825.638 522.515 823.623 520.5 821.138 520.5C818.653 520.5 816.638 522.515 816.638 525L825.638 525ZM816.638 525L816.638 631L825.638 631L825.638 525L816.638 525Z" fill="#67D1E8"/>
<path d="M803.509 468C803.509 465.515 801.495 463.5 799.009 463.5C796.524 463.5 794.509 465.515 794.509 468L803.509 468ZM803.509 631L803.509 468L794.509 468L794.509 631L803.509 631Z" fill="#67D1E8"/>
<path d="M781.38 435C781.38 432.515 779.366 430.5 776.88 430.5C774.395 430.5 772.38 432.515 772.38 435L781.38 435ZM781.381 631L781.38 435L772.38 435L772.381 631L781.381 631Z" fill="#67D1E8"/>
<path d="M715.846 378C715.846 375.515 713.831 373.5 711.346 373.5C708.86 373.5 706.846 375.515 706.846 378L715.846 378ZM706.846 378L706.846 631L715.846 631L715.846 378L706.846 378Z" fill="#67D1E8"/>
<path d="M625.629 359C625.629 356.515 623.614 354.5 621.129 354.5C618.643 354.5 616.629 356.515 616.629 359H625.629ZM616.629 359V630H625.629V359H616.629Z" fill="#67D1E8"/>
<path d="M136 635.5C133.515 635.5 131.5 633.485 131.5 631C131.5 628.515 133.515 626.5 136 626.5V635.5ZM136 626.5H136.851V635.5H136V626.5Z" fill="#67D1E8"/>
<path d="M153.629 628C153.629 625.515 155.643 623.5 158.129 623.5C160.614 623.5 162.629 625.515 162.629 628L153.629 628ZM153.629 631L153.629 628L162.629 628L162.629 631L153.629 631Z" fill="#67D1E8"/>
<path d="M175.757 624C175.757 621.515 177.772 619.5 180.257 619.5C182.743 619.5 184.757 621.515 184.757 624L175.757 624ZM184.757 624L184.757 631L175.757 631L175.757 624L184.757 624Z" fill="#67D1E8"/>
<path d="M206.035 628C206.035 625.515 204.02 623.5 201.535 623.5C199.05 623.5 197.035 625.515 197.035 628L206.035 628ZM197.035 628L197.035 631L206.035 631L206.035 628L197.035 628Z" fill="#67D1E8"/>
<path d="M228.164 611C228.164 608.515 226.149 606.5 223.664 606.5C221.178 606.5 219.164 608.515 219.164 611L228.164 611ZM228.164 631L228.164 611L219.164 611L219.164 631L228.164 631Z" fill="#67D1E8"/>
<path d="M241.292 590C241.292 587.515 243.307 585.5 245.792 585.5C248.278 585.5 250.292 587.515 250.292 590L241.292 590ZM250.292 590L250.292 631L241.292 631L241.292 590L250.292 590Z" fill="#67D1E8"/>
<path d="M272.421 597C272.421 594.515 270.406 592.5 267.921 592.5C265.436 592.5 263.421 594.515 263.421 597L272.421 597ZM272.421 631L272.421 597L263.421 597L263.421 631L272.421 631Z" fill="#67D1E8"/>
<path d="M293.699 580C293.699 577.515 291.684 575.5 289.199 575.5C286.713 575.5 284.699 577.515 284.699 580L293.699 580ZM284.699 580L284.699 631L293.699 631L293.699 580L284.699 580Z" fill="#67D1E8"/>
<path d="M315.827 590C315.827 587.515 313.812 585.5 311.327 585.5C308.842 585.5 306.827 587.515 306.827 590L315.827 590ZM315.827 631L315.827 590L306.827 590L306.827 631L315.827 631Z" fill="#67D1E8"/>
<path d="M337.956 551C337.956 548.515 335.941 546.5 333.456 546.5C330.971 546.5 328.956 548.515 328.956 551L337.956 551ZM328.956 551L328.956 631L337.956 631L337.956 551L328.956 551Z" fill="#67D1E8"/>
<path d="M360.085 525C360.085 522.515 358.07 520.5 355.585 520.5C353.099 520.5 351.085 522.515 351.085 525L360.085 525ZM360.085 631L360.085 525L351.085 525L351.085 631L360.085 631Z" fill="#67D1E8"/>
<path d="M447.748 418C447.748 415.515 445.733 413.5 443.248 413.5C440.763 413.5 438.748 415.515 438.748 418L447.748 418ZM438.748 418L438.748 631L447.748 631L447.748 418L438.748 418Z" fill="#67D1E8"/>
<path d="M469.026 415C469.026 412.515 467.011 410.5 464.526 410.5C462.04 410.5 460.026 412.515 460.026 415L469.026 415ZM469.026 630L469.026 415L460.026 415L460.026 630L469.026 630Z" fill="#67D1E8"/>
<path d="M506.837 369.971C506.853 367.485 508.881 365.484 511.366 365.5C513.851 365.516 515.853 367.544 515.836 370.029L506.837 369.971ZM505.134 630.971L506.837 369.971L515.836 370.029L514.134 631.029L505.134 630.971Z" fill="#67D1E8"/>
<path d="M537.965 375C537.965 372.515 535.95 370.5 533.465 370.5C530.98 370.5 528.965 372.515 528.965 375L537.965 375ZM528.965 375L528.965 630L537.965 630L537.965 375L528.965 375Z" fill="#67D1E8"/>
<path d="M559.243 348C559.243 345.515 557.228 343.5 554.743 343.5C552.257 343.5 550.243 345.515 550.243 348L559.243 348ZM559.243 630L559.243 348L550.243 348L550.243 630L559.243 630Z" fill="#67D1E8"/>
<path d="M381.362 496C381.362 493.515 379.347 491.5 376.862 491.5C374.377 491.5 372.362 493.515 372.362 496L381.362 496ZM372.362 496L372.362 631L381.362 631L381.362 496L372.362 496Z" fill="#67D1E8"/>
<path d="M403.491 490C403.491 487.515 401.476 485.5 398.991 485.5C396.506 485.5 394.491 487.515 394.491 490L403.491 490ZM403.491 631L403.491 490L394.491 490L394.491 631L403.491 631Z" fill="#67D1E8"/>
<path d="M425.62 437C425.62 434.515 423.605 432.5 421.12 432.5C418.634 432.5 416.62 434.515 416.62 437L425.62 437ZM425.62 631L425.62 437L416.62 437L416.62 631L425.62 631Z" fill="#67D1E8"/>
<path d="M491.154 379C491.154 376.515 489.14 374.5 486.654 374.5C484.169 374.5 482.154 376.515 482.154 379L491.154 379ZM482.154 379L482.154 631L491.154 631L491.154 379L482.154 379Z" fill="#67D1E8"/>
<path d="M572.371 359C572.371 356.515 574.386 354.5 576.871 354.5C579.357 354.5 581.371 356.515 581.371 359H572.371ZM581.371 359V630H572.371V359H581.371Z" fill="#67D1E8"/>
<path d="M971.259 174V178.576H965.803V189.136C965.803 190.06 965.979 190.72 966.419 191.116C966.815 191.512 967.431 191.732 968.223 191.776C969.015 191.82 970.027 191.82 971.259 191.732V196C967.607 196.44 965.011 196.132 963.427 195.076C961.843 194.02 961.051 192.04 961.051 189.136V178.576H957.003V174H961.051V169.248L965.803 167.84V174H971.259Z" fill="white"/>
<path d="M945.418 173.428C947.97 173.428 949.994 174.264 951.534 175.892C953.074 177.52 953.866 179.72 953.866 182.492V196H949.114V182.976C949.114 181.348 948.674 180.072 947.794 179.192C946.914 178.312 945.682 177.872 944.186 177.872C942.426 177.872 941.062 178.444 940.094 179.5C939.082 180.556 938.598 182.14 938.598 184.208V196H933.846V174H938.598V176.816C940.05 174.572 942.338 173.428 945.418 173.428Z" fill="white"/>
<path d="M929.489 187.024H911.977C912.329 188.696 913.121 189.972 914.353 190.852C915.585 191.776 917.169 192.216 919.017 192.216C921.481 192.216 923.373 191.336 924.693 189.488L928.609 191.776C926.453 194.988 923.241 196.572 918.973 196.572C915.409 196.572 912.505 195.516 910.305 193.316C908.105 191.116 907.005 188.344 907.005 185C907.005 181.744 908.061 179.016 910.261 176.772C912.373 174.572 915.189 173.428 918.621 173.428C921.789 173.428 924.429 174.572 926.541 176.816C928.609 179.104 929.665 181.832 929.665 185.044C929.665 185.66 929.577 186.32 929.489 187.024ZM911.933 183.152H924.869C924.517 181.436 923.813 180.116 922.669 179.148C921.525 178.224 920.161 177.74 918.577 177.74C916.817 177.74 915.321 178.224 914.177 179.192C912.989 180.16 912.241 181.48 911.933 183.152Z" fill="white"/>
<path d="M904.829 174V178.576H899.373V189.136C899.373 190.06 899.549 190.72 899.989 191.116C900.385 191.512 901.001 191.732 901.793 191.776C902.585 191.82 903.597 191.82 904.829 191.732V196C901.177 196.44 898.581 196.132 896.997 195.076C895.413 194.02 894.621 192.04 894.621 189.136V178.576H890.573V174H894.621V169.248L899.373 167.84V174H904.829Z" fill="white"/>
<path d="M877.399 180.072C877.399 180.776 877.751 181.304 878.455 181.744C879.159 182.184 880.171 182.58 881.535 182.932C882.547 183.196 883.427 183.416 884.219 183.68C884.967 183.944 885.759 184.34 886.639 184.868C887.475 185.396 888.135 186.056 888.575 186.892C889.015 187.728 889.235 188.696 889.235 189.796C889.235 191.908 888.399 193.58 886.771 194.768C885.099 196 883.075 196.572 880.655 196.572C878.455 196.572 876.607 196.132 875.067 195.208C873.483 194.328 872.383 193.052 871.679 191.424L875.771 189.048C876.475 191.16 878.103 192.216 880.655 192.216C883.119 192.216 884.395 191.424 884.395 189.752C884.395 188.564 882.987 187.64 880.215 186.936C879.159 186.672 878.235 186.408 877.531 186.144C876.827 185.88 876.035 185.528 875.155 185C874.275 184.516 873.615 183.856 873.175 183.02C872.735 182.228 872.515 181.26 872.559 180.16C872.559 178.136 873.307 176.508 874.847 175.276C876.387 174.044 878.323 173.428 880.611 173.428C882.415 173.428 884.043 173.868 885.451 174.66C886.859 175.452 887.959 176.596 888.751 178.004L884.747 180.248C883.999 178.576 882.635 177.74 880.611 177.74C879.643 177.74 878.895 177.96 878.279 178.356C877.663 178.796 877.399 179.368 877.399 180.072Z" fill="white"/>
<path d="M867.479 169.82C866.863 170.436 866.159 170.7 865.367 170.7C864.531 170.7 863.827 170.436 863.211 169.82C862.595 169.204 862.331 168.5 862.331 167.664C862.331 166.872 862.595 166.168 863.211 165.552C863.783 164.936 864.487 164.628 865.367 164.628C866.203 164.628 866.907 164.936 867.523 165.552C868.095 166.168 868.403 166.872 868.403 167.664C868.403 168.5 868.095 169.204 867.479 169.82ZM867.743 196H862.991V174H867.743V196Z" fill="white"/>
<path d="M847.235 180.072C847.235 180.776 847.587 181.304 848.291 181.744C848.995 182.184 850.007 182.58 851.371 182.932C852.383 183.196 853.263 183.416 854.055 183.68C854.803 183.944 855.595 184.34 856.475 184.868C857.311 185.396 857.971 186.056 858.411 186.892C858.851 187.728 859.071 188.696 859.071 189.796C859.071 191.908 858.235 193.58 856.607 194.768C854.935 196 852.911 196.572 850.491 196.572C848.291 196.572 846.443 196.132 844.903 195.208C843.319 194.328 842.219 193.052 841.515 191.424L845.607 189.048C846.311 191.16 847.939 192.216 850.491 192.216C852.955 192.216 854.231 191.424 854.231 189.752C854.231 188.564 852.823 187.64 850.051 186.936C848.995 186.672 848.071 186.408 847.367 186.144C846.663 185.88 845.871 185.528 844.991 185C844.111 184.516 843.451 183.856 843.011 183.02C842.571 182.228 842.351 181.26 842.395 180.16C842.395 178.136 843.143 176.508 844.683 175.276C846.223 174.044 848.159 173.428 850.447 173.428C852.251 173.428 853.879 173.868 855.287 174.66C856.695 175.452 857.795 176.596 858.587 178.004L854.583 180.248C853.835 178.576 852.471 177.74 850.447 177.74C849.479 177.74 848.731 177.96 848.115 178.356C847.499 178.796 847.235 179.368 847.235 180.072Z" fill="white"/>
<path d="M829.403 173.428C831.955 173.428 833.979 174.264 835.519 175.892C837.059 177.52 837.851 179.72 837.851 182.492V196H833.099V182.976C833.099 181.348 832.659 180.072 831.779 179.192C830.899 178.312 829.667 177.872 828.171 177.872C826.411 177.872 825.047 178.444 824.079 179.5C823.067 180.556 822.583 182.14 822.583 184.208V196H817.831V174H822.583V176.816C824.035 174.572 826.323 173.428 829.403 173.428Z" fill="white"/>
<path d="M801.918 196.572C798.662 196.572 795.89 195.472 793.69 193.228C791.402 190.984 790.302 188.256 790.302 185C790.302 181.788 791.402 179.06 793.69 176.772C795.89 174.572 798.662 173.428 801.918 173.428C805.174 173.428 807.902 174.572 810.146 176.772C812.39 179.06 813.534 181.788 813.534 185C813.534 188.256 812.39 190.984 810.146 193.228C807.902 195.472 805.174 196.572 801.918 196.572ZM797.034 189.972C798.354 191.292 799.982 191.952 801.918 191.952C803.854 191.952 805.482 191.292 806.802 189.972C808.122 188.652 808.782 187.024 808.782 185C808.782 183.02 808.122 181.348 806.802 180.028C805.482 178.708 803.854 178.048 801.918 178.048C799.982 178.048 798.354 178.708 797.034 180.028C795.714 181.348 795.054 183.02 795.054 185C795.054 187.024 795.714 188.652 797.034 189.972Z" fill="white"/>
<path d="M778.543 196.572C775.199 196.572 772.427 195.472 770.227 193.228C768.027 190.984 766.927 188.256 766.927 185C766.927 181.744 768.027 178.972 770.227 176.772C772.427 174.572 775.199 173.428 778.543 173.428C780.655 173.428 782.635 173.956 784.395 174.968C786.155 176.024 787.475 177.388 788.355 179.104L784.263 181.48C783.735 180.424 782.987 179.632 781.975 179.016C780.963 178.4 779.819 178.092 778.499 178.092C776.563 178.092 774.935 178.752 773.615 180.072C772.295 181.436 771.679 183.064 771.679 185C771.679 186.936 772.295 188.608 773.615 189.928C774.935 191.248 776.563 191.908 778.499 191.908C779.775 191.908 780.919 191.644 781.975 191.028C783.031 190.412 783.823 189.576 784.351 188.52L788.443 190.852C787.475 192.612 786.111 194.02 784.351 195.032C782.591 196.088 780.655 196.572 778.543 196.572Z" fill="white"/>
<path d="M743.495 189.972L749.127 174H754.187L745.739 196.704C743.627 202.424 740.019 205.108 735.003 204.8V200.356C736.455 200.444 737.643 200.136 738.567 199.432C739.447 198.728 740.239 197.628 740.855 196.044L741.075 195.604L731.747 174H736.939L743.495 189.972Z" fill="white"/>
<path d="M728.782 196H724.03V163.88H728.782V196Z" fill="white"/>
<path d="M718.512 196H713.76V163.88H718.512V196Z" fill="white"/>
<path d="M703.452 185.792V174H708.204V196H703.452V193.184C701.956 195.472 699.712 196.572 696.632 196.572C694.08 196.572 692.012 195.78 690.472 194.152C688.932 192.524 688.184 190.324 688.184 187.508V174H692.936V187.024C692.936 188.696 693.376 189.928 694.256 190.808C695.136 191.688 696.324 192.128 697.864 192.128C699.58 192.128 700.944 191.6 701.956 190.544C702.924 189.488 703.452 187.904 703.452 185.792Z" fill="white"/>
<path d="M685.843 164.628V169.204C682.367 168.94 680.651 170.392 680.651 173.56V174H685.843V178.576H680.651V196H675.899V178.576H672.555V174H675.899V173.56C675.899 170.524 676.735 168.236 678.451 166.652C680.123 165.112 682.587 164.452 685.843 164.628Z" fill="white"/>
<path d="M668.534 169.82C667.918 170.436 667.214 170.7 666.422 170.7C665.586 170.7 664.882 170.436 664.266 169.82C663.65 169.204 663.385 168.5 663.385 167.664C663.385 166.872 663.65 166.168 664.266 165.552C664.838 164.936 665.542 164.628 666.422 164.628C667.258 164.628 667.962 164.936 668.578 165.552C669.15 166.168 669.458 166.872 669.458 167.664C669.458 168.5 669.15 169.204 668.534 169.82ZM668.797 196H664.045V174H668.797V196Z" fill="white"/>
<path d="M659.735 174V178.576H654.279V189.136C654.279 190.06 654.456 190.72 654.896 191.116C655.292 191.512 655.908 191.732 656.7 191.776C657.492 191.82 658.503 191.82 659.735 191.732V196C656.083 196.44 653.488 196.132 651.904 195.076C650.32 194.02 649.528 192.04 649.528 189.136V178.576H645.479V174H649.528V169.248L654.279 167.84V174H659.735Z" fill="white"/>
<path d="M637.151 185.792V174H641.903V196H637.151V193.184C635.655 195.472 633.411 196.572 630.331 196.572C627.779 196.572 625.711 195.78 624.171 194.152C622.631 192.524 621.883 190.324 621.883 187.508V174H626.635V187.024C626.635 188.696 627.075 189.928 627.955 190.808C628.835 191.688 630.023 192.128 631.563 192.128C633.279 192.128 634.643 191.6 635.655 190.544C636.623 189.488 637.151 187.904 637.151 185.792Z" fill="white"/>
<path d="M612.032 177.124V174H616.784V196H612.032V192.832C610.228 195.34 607.676 196.572 604.332 196.572C601.296 196.572 598.7 195.472 596.588 193.228C594.432 191.028 593.376 188.256 593.376 185C593.376 181.744 594.432 179.016 596.588 176.772C598.7 174.572 601.296 173.428 604.332 173.428C607.676 173.428 610.228 174.66 612.032 177.124ZM600.108 190.06C601.428 191.38 603.056 192.04 605.08 192.04C607.06 192.04 608.732 191.38 610.052 190.06C611.372 188.74 612.032 187.024 612.032 185C612.032 182.976 611.372 181.304 610.052 179.984C608.732 178.664 607.06 177.96 605.08 177.96C603.056 177.96 601.428 178.664 600.108 179.984C598.788 181.304 598.128 182.976 598.128 185C598.128 187.024 598.788 188.696 600.108 190.06Z" fill="white"/>
<path d="M590.379 187.024H572.867C573.219 188.696 574.011 189.972 575.243 190.852C576.475 191.776 578.06 192.216 579.908 192.216C582.372 192.216 584.263 191.336 585.583 189.488L589.5 191.776C587.344 194.988 584.131 196.572 579.863 196.572C576.299 196.572 573.395 195.516 571.195 193.316C568.995 191.116 567.896 188.344 567.896 185C567.896 181.744 568.951 179.016 571.151 176.772C573.263 174.572 576.08 173.428 579.512 173.428C582.68 173.428 585.319 174.572 587.431 176.816C589.499 179.104 590.556 181.832 590.556 185.044C590.556 185.66 590.467 186.32 590.379 187.024ZM572.823 183.152H585.759C585.407 181.436 584.704 180.116 583.56 179.148C582.416 178.224 581.051 177.74 579.467 177.74C577.707 177.74 576.212 178.224 575.068 179.192C573.88 180.16 573.131 181.48 572.823 183.152Z" fill="white"/>
<path d="M553.865 173.428C556.857 173.428 559.453 174.572 561.609 176.772C563.721 179.016 564.821 181.744 564.821 185C564.821 188.256 563.721 191.028 561.609 193.228C559.453 195.472 556.857 196.572 553.865 196.572C550.521 196.572 547.925 195.34 546.165 192.832V196H541.413V165.2H546.165V177.124C547.969 174.66 550.521 173.428 553.865 173.428ZM548.145 190.06C549.465 191.38 551.093 192.04 553.117 192.04C555.097 192.04 556.769 191.38 558.089 190.06C559.409 188.74 560.069 187.024 560.069 185C560.069 182.976 559.409 181.304 558.089 179.984C556.769 178.664 555.097 177.96 553.117 177.96C551.093 177.96 549.465 178.664 548.145 179.984C546.825 181.304 546.165 182.976 546.165 185C546.165 187.024 546.825 188.696 548.145 190.06Z" fill="white"/>
<path d="M514.399 180.072C514.399 180.776 514.751 181.304 515.455 181.744C516.159 182.184 517.171 182.58 518.535 182.932C519.547 183.196 520.427 183.416 521.219 183.68C521.967 183.944 522.759 184.34 523.639 184.868C524.475 185.396 525.135 186.056 525.575 186.892C526.015 187.728 526.235 188.696 526.235 189.796C526.235 191.908 525.399 193.58 523.771 194.768C522.099 196 520.075 196.572 517.655 196.572C515.455 196.572 513.607 196.132 512.067 195.208C510.483 194.328 509.383 193.052 508.679 191.424L512.771 189.048C513.475 191.16 515.103 192.216 517.655 192.216C520.119 192.216 521.395 191.424 521.395 189.752C521.395 188.564 519.987 187.64 517.215 186.936C516.159 186.672 515.235 186.408 514.531 186.144C513.827 185.88 513.035 185.528 512.155 185C511.275 184.516 510.615 183.856 510.175 183.02C509.735 182.228 509.515 181.26 509.559 180.16C509.559 178.136 510.307 176.508 511.847 175.276C513.387 174.044 515.323 173.428 517.611 173.428C519.415 173.428 521.043 173.868 522.451 174.66C523.859 175.452 524.959 176.596 525.751 178.004L521.747 180.248C520.999 178.576 519.635 177.74 517.611 177.74C516.643 177.74 515.895 177.96 515.279 178.356C514.663 178.796 514.399 179.368 514.399 180.072Z" fill="white"/>
<path d="M504.479 169.82C503.863 170.436 503.159 170.7 502.367 170.7C501.531 170.7 500.827 170.436 500.211 169.82C499.595 169.204 499.331 168.5 499.331 167.664C499.331 166.872 499.595 166.168 500.211 165.552C500.783 164.936 501.487 164.628 502.367 164.628C503.203 164.628 503.907 164.936 504.523 165.552C505.095 166.168 505.403 166.872 505.403 167.664C505.403 168.5 505.095 169.204 504.479 169.82ZM504.743 196H499.991V174H504.743V196Z" fill="white"/>
<path d="M472.978 180.072C472.978 180.776 473.33 181.304 474.034 181.744C474.738 182.184 475.75 182.58 477.114 182.932C478.126 183.196 479.006 183.416 479.798 183.68C480.546 183.944 481.338 184.34 482.218 184.868C483.054 185.396 483.714 186.056 484.154 186.892C484.594 187.728 484.814 188.696 484.814 189.796C484.814 191.908 483.978 193.58 482.35 194.768C480.678 196 478.654 196.572 476.234 196.572C474.034 196.572 472.186 196.132 470.646 195.208C469.062 194.328 467.962 193.052 467.258 191.424L471.35 189.048C472.054 191.16 473.682 192.216 476.234 192.216C478.698 192.216 479.974 191.424 479.974 189.752C479.974 188.564 478.566 187.64 475.794 186.936C474.738 186.672 473.814 186.408 473.11 186.144C472.406 185.88 471.614 185.528 470.734 185C469.854 184.516 469.194 183.856 468.754 183.02C468.314 182.228 468.094 181.26 468.138 180.16C468.138 178.136 468.886 176.508 470.426 175.276C471.966 174.044 473.902 173.428 476.19 173.428C477.994 173.428 479.622 173.868 481.03 174.66C482.438 175.452 483.538 176.596 484.33 178.004L480.326 180.248C479.578 178.576 478.214 177.74 476.19 177.74C475.222 177.74 474.474 177.96 473.858 178.356C473.242 178.796 472.978 179.368 472.978 180.072Z" fill="#67D1E8"/>
<path d="M454.028 180.072C454.028 180.776 454.38 181.304 455.084 181.744C455.788 182.184 456.8 182.58 458.164 182.932C459.176 183.196 460.056 183.416 460.848 183.68C461.596 183.944 462.388 184.34 463.268 184.868C464.104 185.396 464.764 186.056 465.204 186.892C465.644 187.728 465.864 188.696 465.864 189.796C465.864 191.908 465.028 193.58 463.4 194.768C461.728 196 459.704 196.572 457.284 196.572C455.084 196.572 453.236 196.132 451.696 195.208C450.112 194.328 449.012 193.052 448.308 191.424L452.4 189.048C453.104 191.16 454.732 192.216 457.284 192.216C459.748 192.216 461.024 191.424 461.024 189.752C461.024 188.564 459.616 187.64 456.844 186.936C455.788 186.672 454.864 186.408 454.16 186.144C453.456 185.88 452.664 185.528 451.784 185C450.904 184.516 450.244 183.856 449.804 183.02C449.364 182.228 449.144 181.26 449.188 180.16C449.188 178.136 449.936 176.508 451.476 175.276C453.016 174.044 454.952 173.428 457.24 173.428C459.044 173.428 460.672 173.868 462.08 174.66C463.488 175.452 464.588 176.596 465.38 178.004L461.376 180.248C460.628 178.576 459.264 177.74 457.24 177.74C456.272 177.74 455.524 177.96 454.908 178.356C454.292 178.796 454.028 179.368 454.028 180.072Z" fill="#67D1E8"/>
<path d="M446.262 187.024H428.75C429.102 188.696 429.894 189.972 431.126 190.852C432.358 191.776 433.942 192.216 435.79 192.216C438.254 192.216 440.146 191.336 441.466 189.488L445.382 191.776C443.226 194.988 440.014 196.572 435.746 196.572C432.182 196.572 429.278 195.516 427.078 193.316C424.878 191.116 423.778 188.344 423.778 185C423.778 181.744 424.834 179.016 427.034 176.772C429.146 174.572 431.962 173.428 435.394 173.428C438.562 173.428 441.202 174.572 443.314 176.816C445.382 179.104 446.438 181.832 446.438 185.044C446.438 185.66 446.35 186.32 446.262 187.024ZM428.706 183.152H441.642C441.29 181.436 440.586 180.116 439.442 179.148C438.298 178.224 436.934 177.74 435.35 177.74C433.59 177.74 432.094 178.224 430.95 179.192C429.762 180.16 429.014 181.48 428.706 183.152Z" fill="#67D1E8"/>
<path d="M411.446 173.428C413.998 173.428 416.022 174.264 417.562 175.892C419.102 177.52 419.894 179.72 419.894 182.492V196H415.142V182.976C415.142 181.348 414.702 180.072 413.822 179.192C412.942 178.312 411.71 177.872 410.214 177.872C408.454 177.872 407.09 178.444 406.122 179.5C405.11 180.556 404.626 182.14 404.626 184.208V196H399.874V174H404.626V176.816C406.078 174.572 408.366 173.428 411.446 173.428Z" fill="#67D1E8"/>
<path d="M386.472 173.428C388.936 173.428 390.96 174.264 392.5 175.848C393.996 177.476 394.788 179.632 394.788 182.36V196H390.036V182.668C390.036 181.172 389.64 180.028 388.892 179.148C388.1 178.312 387.088 177.872 385.768 177.872C384.272 177.872 383.084 178.4 382.248 179.368C381.368 180.336 380.972 181.788 380.972 183.68V196H376.22V182.668C376.22 181.172 375.824 179.984 375.12 179.148C374.416 178.312 373.404 177.872 372.084 177.872C370.588 177.872 369.4 178.4 368.52 179.368C367.64 180.38 367.2 181.832 367.2 183.68V196H362.448V174H367.2V176.64C368.608 174.528 370.676 173.428 373.492 173.428C376.308 173.428 378.376 174.616 379.74 176.904C381.148 174.616 383.392 173.428 386.472 173.428Z" fill="#67D1E8"/>
<path d="M346.535 196.572C343.279 196.572 340.507 195.472 338.307 193.228C336.019 190.984 334.919 188.256 334.919 185C334.919 181.788 336.019 179.06 338.307 176.772C340.507 174.572 343.279 173.428 346.535 173.428C349.791 173.428 352.519 174.572 354.763 176.772C357.007 179.06 358.151 181.788 358.151 185C358.151 188.256 357.007 190.984 354.763 193.228C352.519 195.472 349.791 196.572 346.535 196.572ZM341.651 189.972C342.971 191.292 344.599 191.952 346.535 191.952C348.471 191.952 350.099 191.292 351.419 189.972C352.739 188.652 353.399 187.024 353.399 185C353.399 183.02 352.739 181.348 351.419 180.028C350.099 178.708 348.471 178.048 346.535 178.048C344.599 178.048 342.971 178.708 341.651 180.028C340.331 181.348 339.671 183.02 339.671 185C339.671 187.024 340.331 188.652 341.651 189.972Z" fill="#67D1E8"/>
<path d="M325.86 177.124V165.2H330.612V196H325.86V192.832C324.056 195.34 321.504 196.572 318.16 196.572C315.124 196.572 312.528 195.472 310.416 193.228C308.26 191.028 307.204 188.256 307.204 185C307.204 181.744 308.26 179.016 310.416 176.772C312.528 174.572 315.124 173.428 318.16 173.428C321.504 173.428 324.056 174.66 325.86 177.124ZM313.936 190.06C315.256 191.38 316.884 192.04 318.908 192.04C320.888 192.04 322.56 191.38 323.88 190.06C325.2 188.74 325.86 187.024 325.86 185C325.86 182.976 325.2 181.304 323.88 179.984C322.56 178.664 320.888 177.96 318.908 177.96C316.884 177.96 315.256 178.664 313.936 179.984C312.616 181.304 311.956 182.976 311.956 185C311.956 187.024 312.616 188.696 313.936 190.06Z" fill="#67D1E8"/>
<path d="M294.871 173.428C297.423 173.428 299.447 174.264 300.987 175.892C302.527 177.52 303.319 179.72 303.319 182.492V196H298.567V182.976C298.567 181.348 298.127 180.072 297.247 179.192C296.367 178.312 295.135 177.872 293.639 177.872C291.879 177.872 290.515 178.444 289.547 179.5C288.535 180.556 288.051 182.14 288.051 184.208V196H283.299V174H288.051V176.816C289.503 174.572 291.791 173.428 294.871 173.428Z" fill="#67D1E8"/>
<path d="M273.009 177.124V174H277.761V196H273.009V192.832C271.205 195.34 268.653 196.572 265.309 196.572C262.273 196.572 259.677 195.472 257.565 193.228C255.409 191.028 254.353 188.256 254.353 185C254.353 181.744 255.409 179.016 257.565 176.772C259.677 174.572 262.273 173.428 265.309 173.428C268.653 173.428 271.205 174.66 273.009 177.124ZM261.085 190.06C262.405 191.38 264.033 192.04 266.057 192.04C268.037 192.04 269.709 191.38 271.029 190.06C272.349 188.74 273.009 187.024 273.009 185C273.009 182.976 272.349 181.304 271.029 179.984C269.709 178.664 268.037 177.96 266.057 177.96C264.033 177.96 262.405 178.664 261.085 179.984C259.765 181.304 259.105 182.976 259.105 185C259.105 187.024 259.765 188.696 261.085 190.06Z" fill="#67D1E8"/>
<path d="M253.168 196H247.624L241.112 184.78H235.128V196H230.068V165.2H242.388C245.116 165.2 247.448 166.168 249.384 168.104C251.32 169.996 252.288 172.328 252.288 175.1C252.288 177.08 251.716 178.884 250.572 180.512C249.428 182.14 247.976 183.328 246.172 184.032L253.168 196ZM242.388 169.952H235.128V180.248H242.388C243.708 180.248 244.852 179.764 245.82 178.752C246.744 177.784 247.228 176.552 247.228 175.1C247.228 173.692 246.744 172.46 245.82 171.448C244.852 170.48 243.708 169.952 242.388 169.952Z" fill="#67D1E8"/>
</g>
<defs>
<clipPath id="clip0_2650_304">
<rect width="1200" height="630" fill="white"/>
</clipPath>
</defs>
</svg>
